<?xml version="1.0" encoding="UTF-8"?>
<svg version="1.1" xmlns="http://www.w3.org/2000/svg" width="619" height="607">
<path d="M0 0 C204.27 0 408.54 0 619 0 C619 200.31 619 400.62 619 607 C414.73 607 210.46 607 0 607 C0 406.69 0 206.38 0 0 Z " fill="#FDFCFD" transform="translate(0,0)"/>
<path d="M0 0 C84.15 0 168.3 0 255 0 C255 53.13 255 106.26 255 161 C311.76 161 368.52 161 427 161 C427 249.77 427 338.54 427 430 C348.46 430 269.92 430 189 430 C189 367.96 189 305.92 189 242 C126.63 242 64.26 242 0 242 C0 162.14 0 82.28 0 0 Z " fill="#060D12" transform="translate(96,95)"/>
<path d="M0 0 C204.27 0 408.54 0 619 0 C619 200.31 619 400.62 619 607 C414.73 607 210.46 607 0 607 C0 406.69 0 206.38 0 0 Z M41 42 C41 214.59 41 387.18 41 565 C218.54 565 396.08 565 579 565 C579 392.41 579 219.82 579 42 C401.46 42 223.92 42 41 42 Z " fill="#E23032" transform="translate(0,0)"/>
<path d="M0 0 C58.08 0 116.16 0 176 0 C176 67.65 176 135.3 176 205 C117.92 205 59.84 205 0 205 C0 137.35 0 69.7 0 0 Z " fill="#F9F9F9" transform="translate(316,288)"/>
<path d="M0 0 C0 0.66 0 1.32 0 2 C0.94875 2.20625 1.8975 2.4125 2.875 2.625 C9.98086655 4.64699455 16.46856338 9.20608827 22 14 C20.56007449 18.10228779 18.55506592 21.30398117 16 24.8125 C14.948125 26.27623047 14.948125 26.27623047 13.875 27.76953125 C13.25625 28.50558594 12.6375 29.24164063 12 30 C11.34 30 10.68 30 10 30 C9.5978125 30.8353125 9.5978125 30.8353125 9.1875 31.6875 C7.89877353 34.19712523 6.47073522 36.59334236 5 39 C1.99779065 38.40479074 0.12982492 37.50099643 -2.3125 35.6875 C-12.26296397 29.28944467 -25.02576371 27.62853425 -36.5 29.6875 C-40.93929902 30.77757698 -44.8193481 32.7303497 -48.8359375 34.87890625 C-51 36 -51 36 -54 37 C-55.06503823 38.80563747 -55.06503823 38.80563747 -56 41 C-57.49960663 43.46946091 -59.02782756 45.91938496 -60.5625 48.3671875 C-66.00198349 58.32971977 -65.38474704 71.33603866 -62.4375 82.0625 C-58.31926517 93.49564144 -50.89222779 99.30773511 -40.5 104.875 C-29.43820498 108.56226501 -16.47457906 106.25190321 -6 102 C-5.23816406 101.7834375 -4.47632813 101.566875 -3.69140625 101.34375 C-1.60156252 99.9887042 -1.60156252 99.9887042 -1.390625 96.5234375 C-1.32059344 95.1416042 -1.27855795 93.75831201 -1.25 92.375 C-1.1675 89.94125 -1.085 87.5075 -1 85 C-7.93 85 -14.86 85 -22 85 C-22 76.42 -22 67.84 -22 59 C-5.5 59 11 59 28 59 C28.1148081 66.45742393 28.21434893 73.91178106 28.2746582 81.36938477 C28.29979839 83.9059488 28.33391537 86.44244042 28.37719727 88.97875977 C28.43786661 92.62534451 28.46621574 96.27097132 28.48828125 99.91796875 C28.51408768 101.05147263 28.5398941 102.1849765 28.56648254 103.35282898 C28.56929789 111.26031223 28.56929789 111.26031223 25.59936523 115.11914062 C24.74157471 115.73982422 23.88378418 116.36050781 23 117 C21.97132813 118.07701172 21.97132813 118.07701172 20.921875 119.17578125 C15.95596118 124.06131157 10.86997601 127.41205009 4.625 130.375 C3.95436523 130.69637939 3.28373047 131.01775879 2.59277344 131.34887695 C-7.36323127 135.83097275 -17.37855148 137.56640352 -28.25 137.5 C-29.33684082 137.49500488 -30.42368164 137.49000977 -31.54345703 137.48486328 C-49.90551708 137.09000955 -65.01127329 129.9663709 -78 117 C-78.61488281 116.39671875 -79.22976562 115.7934375 -79.86328125 115.171875 C-93.66426136 100.57773512 -98.65185383 83.60096932 -98.47119141 63.85058594 C-97.92101859 45.43580697 -91.00608665 29.21524886 -78 16 C-63.33247173 3 -63.33247173 3 -56 3 C-56 2.34 -56 1.68 -56 1 C-53.98135603 0.34735571 -51.95996273 -0.29678746 -49.9375 -0.9375 C-48.81214844 -1.29714844 -47.68679687 -1.65679687 -46.52734375 -2.02734375 C-31.69394677 -6.11761601 -14.54637309 -4.84879103 0 0 Z " fill="#FAFAFA" transform="translate(254,149)"/>
<path d="M0 0 C8.58 0 17.16 0 26 0 C26 15.18 26 30.36 26 46 C42.17 46 58.34 46 75 46 C75 30.82 75 15.64 75 0 C83.58 0 92.16 0 101 0 C101 39.93 101 79.86 101 121 C92.42 121 83.84 121 75 121 C75 105.49 75 89.98 75 74 C58.83 74 42.66 74 26 74 C26 89.51 26 105.02 26 121 C17.42 121 8.84 121 0 121 C0 81.07 0 41.14 0 0 Z " fill="#060C11" transform="translate(351,329)"/>
<path d="M0 0 C-2.34277451 2.16237099 -3.62090651 2.96680163 -6.84082031 3.2487793 C-8.44328613 3.16237183 -8.44328613 3.16237183 -10.078125 3.07421875 C-11.23828125 3.01943359 -12.3984375 2.96464844 -13.59375 2.90820312 C-14.8003125 2.83537109 -16.006875 2.76253906 -17.25 2.6875 C-18.47203125 2.62626953 -19.6940625 2.56503906 -20.953125 2.50195312 C-23.96978358 2.34876343 -26.98489814 2.18091879 -30 2 C-30 1.67 -30 1.34 -30 1 C-25.93756661 0.8316832 -21.87504353 0.66563538 -17.8125 0.5 C-16.66201172 0.45230469 -15.51152344 0.40460938 -14.32617188 0.35546875 C-13.21435547 0.31035156 -12.10253906 0.26523437 -10.95703125 0.21875 C-9.93585205 0.17685547 -8.91467285 0.13496094 -7.86254883 0.09179688 C-5.23906217 0.0076663 -2.62456889 -0.0168647 0 0 Z " fill="#747577" transform="translate(243,285)"/>
<path d="M0 0 C4.62 0 9.24 0 14 0 C13.01 1.485 13.01 1.485 12 3 C9.3984375 3.29296875 9.3984375 3.29296875 6.375 3.1875 C4.87066406 3.14689453 4.87066406 3.14689453 3.3359375 3.10546875 C2.56507813 3.07066406 1.79421875 3.03585937 1 3 C0.67 2.01 0.34 1.02 0 0 Z " fill="#1D2125" transform="translate(219,287)"/>
<path d="M0 0 C-1.47721422 3.45201639 -3.43794001 5.64961936 -6.125 8.25 C-6.84945312 8.95640625 -7.57390625 9.6628125 -8.3203125 10.390625 C-8.87460938 10.92171875 -9.42890625 11.4528125 -10 12 C-10 8.07290865 -8.72099538 7.1810287 -6.125 4.3125 C-5.04605469 3.10013672 -5.04605469 3.10013672 -3.9453125 1.86328125 C-2 0 -2 0 0 0 Z " fill="#C1C2C3" transform="translate(180,163)"/>
<path d="M0 0 C0.66 0.33 1.32 0.66 2 1 C0.22958398 2.77041602 -1.56802843 4.46056725 -3.4375 6.125 C-4.03433594 6.66382813 -4.63117188 7.20265625 -5.24609375 7.7578125 C-7 9 -7 9 -10 9 C-7.12505529 5.01930733 -4.17882671 2.56428003 0 0 Z " fill="#373A3D" transform="translate(206,182)"/>
<path d="M0 0 C0.33 0.66 0.66 1.32 1 2 C0.00390625 3.9453125 0.00390625 3.9453125 -1.4375 6.125 C-1.91058594 6.84945312 -2.38367188 7.57390625 -2.87109375 8.3203125 C-3.24363281 8.87460938 -3.61617188 9.42890625 -4 10 C-4.99 9.67 -5.98 9.34 -7 9 C-4.69 6.03 -2.38 3.06 0 0 Z " fill="#2A2C2F" transform="translate(273,168)"/>
</svg>
